<?xml version="1.0" encoding="utf-8"?>
<!-- Generator: Adobe Illustrator 21.0.0, SVG Export Plug-In . SVG Version: 6.00 Build 0)  -->
<svg version="1.1" id="Layer_1" xmlns="http://www.w3.org/2000/svg" xmlns:xlink="http://www.w3.org/1999/xlink" x="0px" y="0px"
	 viewBox="0 0 276 100" style="enable-background:new 0 0 276 100;" xml:space="preserve">
<style type="text/css">
	.st0{fill:none;}
	path{
		stroke: #fff;
		fill: #fff;
	}
	path {
			stroke: #fff;
			fill: #fff;
			stroke-dasharray: 440; 
			opacity: 10;
			animation: animate 2s cubic-bezier(0,0.23,1,.1);
		}

		@keyframes animate{
			0%{
				opacity: 0;
				fill: none;
				stroke-dashoffset: 440; 
			}

			30%{
				opacity: 10;
				fill: none;
				stroke-dashoffset: 440; 
			}

			95%{
				fill: rgba(255, 255, 255, 0);
			}
			100%{
				opacity: 10;
				fill: rgba(255, 255, 255, 1);
				stroke-dashoffset: 0;
			}
		}
</style>
<g>
	<rect x="4.1" y="4.5" class="st0" width="760.5" height="81.9"/>
	<path d="M64.3,16c0.6,0.3,0.8,0.7,0.8,1c0,0.4-0.5,0.7-1.4,0.7c-1.4,0-2,0-1.7-0.1c-0.8,0.1-1.5,0.5-2.2,1.1
		c-1.7,1.6-3.6,5.1-5.8,10.6c-2.8,7-5.3,15.8-7.7,26.4l2.4-4.2c0.5-0.8,0.9-1.2,1.4-1.2c0.3,0,0.4,0.2,0.4,0.6
		c0,0.3-0.1,0.7-0.3,1.2c-1.3,3-2,4.6-2,4.8c-0.9,2.3-1.4,4-1.6,5.2c-0.2,1.4-0.5,2.1-1.1,2.1c-0.4,0-1.5-0.5-3.2-1.4
		c-0.5-0.3-0.7-1.1-0.7-2.6c0-2.8,0.8-7.8,2.5-15c-8.8-0.5-15.4-0.4-19.7,0.4c-1,2.6-2.5,6-4.4,10.1s-3.3,6.8-4.1,8.1
		c-0.7,1.2-1.6,1.6-2.7,1.2c-2.3-0.8-3.5-1.5-3.5-2.2c0-0.4,0.2-0.9,0.5-1.7c0.6-1,1.3-2.4,2.1-4.2c0-0.2,0.1-1.1,0.1-2.6
		c0-0.7,0.2-1.1,0.6-1.1c0.3,0,0.9,0.5,1.7,1.4c0.6,0.6,0.8,1.2,0.7,1.6c1.4-1.6,2.7-4.2,3.9-7.7c-1.2-2.6-1.9-4.2-1.9-4.9
		c0-1.5,1.7-2.3,5-2.2c1.1-2.6,2.6-6.2,4.3-11c1.8-5,2.9-8.4,3.4-10.4c-0.4,0.5-2.2,1.3-5.6,2.5C20.3,24,17.4,25,16,25.7
		c-2.5,1.2-3.8,2.6-3.8,4.2c0,0.7,0.2,1.5,0.5,2.7c0,0.1,0.1,0.3,0.1,0.4c0,0.5-0.2,0.7-0.7,0.7c-0.4,0-0.8-0.2-1-0.6
		c-0.6-1-1.1-2.3-1.7-3.9c-0.6-1.8-0.9-3.2-0.9-4.1c0.1-1.8,2.7-3.2,7.7-4.3c3.4-0.7,6.7-1.4,10-2.1c2.2-0.6,3.8-1.6,4.7-3
		c0.5-0.8,0.9-1.1,1.1-1.1c0.4,0,1,0.4,2,1.1c0.4,0.3,0.6,0.8,0.6,1.4c0,1.2-1.1,4.9-3.4,10.9c-1.1,2.6-2.9,7.1-5.4,13.5
		c6.4,0.6,12.7,0.7,19.1,0.2c1.5-5.6,3.3-10.9,5.2-15.8C53.2,18,56,14,58.4,13.8C60.1,13.9,62,14.5,64.3,16z"/>
	<path d="M65.9,39.2c-0.6,3.2-2,8.4-4.4,15.8c0.7-0.6,1.6-1.7,2.8-3.3c0.2-0.2,0.3-0.3,0.5-0.3c0.4,0,0.4,0.3,0.1,1
		c-0.1,0.3-1.1,1.9-3,4.8c-1.4,2.3-2.4,4.2-3.1,6c-0.2,0.5-0.6,0.8-1.2,0.8s-1.3-0.3-2.3-0.8c-0.6-0.3-0.9-0.6-0.9-0.7
		c0-0.1,0.1-0.4,0.4-0.9c1.3-2.2,2.7-6,4.2-11.2c1.5-5.1,2.3-8.8,2.5-11.3c0.1-1.1,0-1.6-0.3-1.6c-0.2,0-0.6,0.3-1.1,0.8l-2.2,2
		c-0.8,0.7-1.2,0.7-1.2,0.1c0-0.2,0.1-0.4,0.3-0.7c1.1-1.5,2.3-3,3.5-4.4c0.4-0.4,0.7-0.6,1.1-0.6s0.9,0.3,1.7,0.8
		c1.1,0.3,1.7,0.5,1.8,0.5c0.5,0.3,0.8,0.9,0.8,1.8C66.1,38.2,66,38.7,65.9,39.2z M70.9,23.8c0.4,0.3,0.6,0.6,0.6,0.9
		c0,0.7-1,1.7-3,3.2c-1.3,0.9-2.6,1.2-3.9,1c-0.7-0.1-1.3-0.4-1.8-0.8c-0.2-0.1-0.3-0.3-0.4-0.4c-0.1-0.2-0.1-0.3-0.1-0.4
		c0.1-0.1,0.2-0.1,0.4-0.1c2.2-1.9,3.6-3.2,4.3-4c0.5-0.6,0.9-0.9,1.2-0.9C68.6,22.3,69.5,22.8,70.9,23.8z"/>
	<path d="M113.1,8.6c0.3,0.2,0.4,0.4,0.4,0.7c0,0.4-0.3,0.7-0.8,0.7c-0.2,0-0.4-0.1-0.7-0.2c-1.1-0.5-1.9-0.8-2.5-0.8
		c-1.5,0-3.1,1.4-4.8,4.3c-6.4,10.5-11.1,24.5-14.1,42c0.6-0.6,1.4-1.5,2.5-2.7c0.6-0.7,1.1-1.1,1.3-1.1c0.6,0,0.7,0.4,0.2,1.1
		c-2.3,3.1-3.7,6.5-4.5,10.1C89.8,63.6,89.5,64,89,64c-0.2,0-0.5-0.1-0.8-0.3c-1.2-0.8-1.8-1.3-2-1.4c-0.5-0.4-0.7-1-0.7-1.8
		c0-0.4,0.1-0.9,0.2-1.4c1-5.4,1.8-9.4,2.5-12.1c-2.3,3.3-4.9,6.6-7.8,9.9c-2.9,3.3-5,5.4-6.3,6.2c-1,0.7-1.8,1-2.3,1
		c-0.4,0-1.1-0.3-1.9-1c-1.5-0.9-2.3-2-2.3-3.3c0-0.2,0-0.4,0.1-0.7c0.5-3.5,2.1-7.5,4.7-12.1s5.7-8.5,9.1-11.6c1.1-1,2.1-1.5,3-1.5
		s2.5,1.2,4.9,3.3c0.2,0.2,0.3,0.4,0.3,0.6c0,0.4-0.2,0.6-0.7,0.6c-0.2,0-0.3,0-0.5-0.1c-1.6-0.7-3-0.7-4,0.1
		c-2.2,1.6-4.6,4.5-7.3,8.5c-3.1,4.7-4.9,8.9-5.4,12.7c-0.1,0.9,0.1,1.3,0.7,1.3c0.8,0,1.7-0.6,2.8-1.7c2.6-2.6,5.4-5.8,8.4-9.6
		c3.1-4,5-7,5.9-9.1c0.5-1.1,0.9-2.2,1.2-3.2c2.4-8.6,5.2-16,8.2-22.1c2.3-4.8,4.4-8,6.2-9.6c0.7-0.6,1.3-0.9,1.9-0.9
		c0.7,0,1.5,0.4,2.5,1.2C110.7,6.6,111.9,7.6,113.1,8.6z"/>
	<path d="M117,53.1c-5.7,7.3-9.7,10.9-12,10.9c-1.1,0-2.5-0.8-4.2-2.3c-1.8-0.8-2.6-1.9-2.6-3.3c0-0.3,0-0.5,0.1-0.8
		c0.4-3.2,1.3-6.8,2.6-10.7c-0.9-0.4-1.3-0.9-1.3-1.3c0-0.3,0.2-0.5,0.7-0.5c0.4,0,0.8,0.1,1.2,0.3c2.1-4.7,4-8,5.6-10
		c1.1-1.3,2.1-2,2.9-2c0.4,0,1.4,0.3,3,1c-0.1-0.7,0.1-1.1,0.6-1.2c0,0,0.6,0,1.7,0c1,0,1.5,0.2,1.5,0.5c0,0.1,0,0.3-0.1,0.6
		s-0.1,0.6-0.1,0.9c0,0.8,0,1.9,0,3.1c0,1.2,0,2.1,0,2.5c0,2.9-0.8,4.9-2.4,6.1c-1.5,1.1-3.1,1.6-4.9,1.6c-1,0-2.6-0.3-4.8-0.8
		c-0.4,0.7-0.8,2.1-1.3,4.3c-0.7,2.7-1,5-0.9,7.1c0,1.2,0.4,1.8,1.2,1.8c0.3,0,0.6-0.1,1.1-0.2c2.7-1,6.5-3.9,11.4-8.8
		c0.3-0.3,0.6-0.5,0.9-0.5c0.4,0,0.7,0.2,0.7,0.6C117.3,52.6,117.2,52.8,117,53.1z M112.8,37.6c0-0.9-0.2-1.4-0.6-1.4
		c-0.3,0-0.6,0.2-1.1,0.6c-2.3,1.9-4.3,5.1-6,9.7c0.5,0.1,1.3,0.1,2.5,0.2c1.9,0.1,3.3-0.4,4.3-1.3c0.7-0.7,1.1-1.9,1.2-3.5
		C112.9,43.1,112.8,41.7,112.8,37.6z"/>
	<path d="M176.2,17c-1.5,2.1-2.8,7.7-4.1,16.8c-1.1,8-1.7,14.3-1.6,18.8s0.8,6.8,2.2,6.8c0.3,0,0.6-0.1,1.1-0.3s0.8-0.3,1.1-0.3
		c0.5,0,0.7,0.2,0.7,0.5s-0.2,0.5-0.5,0.8c-1.2,1-3,2.2-5.4,3.4c-0.6,0.3-1.1,0.5-1.5,0.5c-2.3,0-3.1-5.8-2.5-17.4
		c-5.6,0.3-10.9,0.8-15.9,1.4l-7,8.5c1.2-0.1,1.7-0.2,1.4-0.2c1.1,0,2,1.1,2.6,3.4c0.2,0.5,0.2,1,0.2,1.3c0,0.6-0.2,0.8-0.7,0.8
		c-0.2,0-0.6-0.1-1-0.2s-0.8-0.2-1.1-0.2c-2,0-4.7,1.1-8.1,3.2l-1.5,0.9c-0.2,0-0.5-0.2-1.1-0.5c-1.1-0.8-1.9-1.7-2.3-2.7
		c-0.3-0.7,0.1-1.5,1.2-2.2c1.5-0.9,3.4-2.5,6-4.7s4.2-3.8,5-4.8c-0.2-2.1-0.3-3.2-0.3-3.3c0-1.3,0.6-2.2,1.5-2.6
		c0.8-0.4,2.3-0.6,4.5-0.7c5.8-7.1,10.5-14,14-20.7c-1.1,0.6-3.2,1.4-6.2,2.4c-4.8,1.5-8,2.6-9.8,3.3c-2.6,0.9-3.8,2.5-3.8,4.8
		c0,0.5,0,1,0.1,1.5c0.1,0.9-0.1,1.3-0.7,1.3c-0.4,0-0.7-0.2-0.9-0.6c-1.3-2.7-2.1-4.6-2.3-5.7c-0.2-1-0.3-1.5-0.3-1.5
		c0-0.8,0.4-1.6,1.2-2.3c1.4-1.2,4.1-2.1,8-2.7c5.9-0.9,11-2.3,15.3-4.2c0.5-0.5,0.8-0.8,0.8-0.9c0.1-0.2,0.2-0.5,0.4-0.9
		c0.1-0.5,0.4-0.7,0.7-0.7c0.5,0,1.3,0.6,2.4,1.7c0.4,0.4,0.5,0.8,0.5,1.2c0,0.2-0.4,1-1.2,2.4c-1.7,3.1-4.1,6.8-7,11.1
		c-3.2,4.9-5.7,8.3-7.5,10.4c5.6,0,9.9-0.1,13.1-0.4c0.3-3.3,1-8,2.1-14c0.6-3,1.1-6,1.7-8.9c0.4-2.5,2.1-4.4,5.1-5.6
		c0.5-0.2,0.9-0.3,1.2-0.3c0.5,0,0.8,0.2,0.8,0.7C176.9,15.8,176.7,16.4,176.2,17z"/>
	<path d="M214.1,45c0.3,0.3,0.5,0.6,0.5,1c0,0.7-0.3,1.1-0.9,1.1c-0.1,0-0.6-0.3-1.4-0.8c-0.4-0.3-0.7-0.4-0.9-0.6
		c-3,8.1-5.5,13.7-7.6,16.6c-0.8,1.1-1.6,1.7-2.5,1.7c-0.4,0-1.2-0.2-2.5-0.6c-1.1-0.4-1.7-0.7-2-0.9s-0.5-0.9-0.8-2
		c-1.1-4.2-1.6-7.7-1.6-10.4c-1.1,1.6-3.1,4.1-5.8,7.3c-2.6,3.1-4.1,5-4.7,5.8c-0.3,0.4-0.7,0.7-1.2,0.7c-0.7,0-1.7-0.5-3.1-1.6
		c-0.4-0.3-0.5-0.5-0.5-0.7c0-0.4,0.5-0.9,1.4-1.6c0.8-2.3,1.5-5.3,2.1-8.9c0.6-3.6,0.8-6.6,0.8-9.2c0-1.3-0.1-2.3-0.2-3
		c-0.5,0.5-1.5,1.8-3.1,3.8c-0.3,0.4-0.6,0.5-0.9,0.5c-0.5,0-0.8-0.2-0.8-0.7c0-0.2,0.1-0.4,0.2-0.6c0.7-0.9,1.8-2.4,3.1-4.5
		c0.4-0.8,1-1.3,1.7-1.6c0.2-0.1,1.1-0.3,2.7-0.7c0.4-0.1,0.8-0.1,1-0.1c0.4,0,0.7,0.2,0.8,0.7c0.1,0.3,0.1,1.1,0.1,2.4
		c0,7.4-0.8,13.8-2.4,19.2c4.3-4.2,7.2-8.3,8.8-12.3c0.2-2.2,0.4-3.8,0.6-4.8c0.3-1.6,0.8-3,1.5-4.1c0.6-1,1.2-1.5,1.9-1.5
		c0.6,0,1.4,0.4,2.6,1.2c0.7,0.4,1,0.9,1,1.2c0,0.2-0.2,0.8-0.6,1.9c-0.7,2-1.6,3.7-2.6,5.1c-0.2,1.5-0.3,3.2-0.3,4.8
		c0,3.4,0.5,7,1.4,10.7c0.3,1,0.6,1.5,1,1.5s1-0.6,1.6-1.8c3.5-6.8,5.6-11.8,6.5-15.3c-0.3-0.4-0.6-0.8-0.9-1.3s-0.5-0.9-0.5-1.5
		c0-0.5,0.1-1,0.4-1.7c0.2-1.1,0.5-2.1,0.7-3.2c0.4-1.4,1-2.1,1.9-2.1c0.7,0,1.7,0.3,2.8,1c0.7,0.4,1.1,1.1,1.1,2
		c0,0.8-0.3,1.8-0.8,3.1c-0.4,0.9-0.8,1.9-1.2,2.8C212.4,43.4,213.1,44,214.1,45z"/>
	<path d="M240.4,39.7c-2.2,6-3.6,11-4.5,15c0.4-0.3,0.8-0.8,1.4-1.5s0.9-1.1,1.1-1.2c0.3-0.4,0.7-0.6,1.1-0.6s0.5,0.2,0.5,0.5
		c0,0.2-0.1,0.5-0.3,0.7c-2.2,3.3-3.7,6.6-4.4,9.9c-0.2,0.9-0.5,1.4-0.9,1.4s-1.1-0.4-2.2-1.1c-0.6-0.4-1-0.8-1.1-1.1
		s-0.1-0.8,0-1.5c1-6,2.2-10.9,3.7-14.8c-2,3.3-4.8,7-8.3,11c-3.1,3.5-5.3,5.7-6.6,6.7c-1,0.7-1.7,1-2.3,1c-0.4,0-1.1-0.3-1.9-1
		c-1.2-0.8-1.9-1.8-1.9-3.1c0-0.3,0-0.6,0.1-0.9c0.4-3.5,1.9-7.5,4.6-12.1s5.6-8.5,9-11.7c1.1-1,2.1-1.5,3-1.5
		c0.8,0,2.4,1.2,4.8,3.3c0.2,0.2,0.3,0.4,0.3,0.6c0,0.4-0.2,0.6-0.7,0.6c-0.2,0-0.4,0-0.5-0.1c-1.7-0.7-3-0.7-4,0.1
		c-2.2,1.6-4.6,4.5-7.3,8.5c-3.1,4.7-5,8.9-5.6,12.7c0,0.2,0,0.3,0,0.5c0,0.6,0.2,0.9,0.7,0.9c0.8,0,1.7-0.6,2.8-1.7
		c2.6-2.6,5.4-5.8,8.4-9.6c3.1-4,5-7,5.9-9.1c0.6-1.5,1-2.6,1.2-3.2c0.3-1.1,0.6-1.6,1-1.6s1.2,0.5,2.5,1.4c0.5,0.4,0.8,0.8,0.9,1.1
		C240.8,38.5,240.6,39,240.4,39.7z"/>
	<path d="M269.7,38.8c-3.3,15-6.3,26.3-9.2,33.7c-5.5,14.5-11.9,21.7-19,21.7c-4.2,0-8.7-2.3-13.5-6.9c-0.4-0.4-0.6-0.8-0.6-1.3
		c0-0.7,0.3-1.1,1-1.1c0.3,0,0.6,0.1,0.9,0.4c3.8,3.3,7.2,4.9,10.2,4.9c5.5,0,10.5-4.6,15-13.8c3.5-7.2,6.6-16.9,9.2-29
		c0.2-0.9,0.4-2.2,0.8-4c-2.5,4-5.2,8-8.3,11.8c-2.9,3.8-5.2,6.3-6.9,7.7c-0.9,0.8-1.7,1.2-2.3,1.2c-0.4,0-0.9-0.2-1.4-0.7
		c-0.5-0.6-1-1.3-1.5-1.9c-0.2-0.3-0.4-0.5-0.4-0.8c0,0,0,0,0-0.1c0-0.3,0.3-0.5,0.6-0.6c1.1-1.5,2.2-4.8,3.2-9.9
		c0.8-4,1.3-7.8,1.5-11.4c0-0.8-0.1-1.3-0.3-1.3c-0.1,0-0.6,0.4-1.7,1.3c-1.6,1.4-2.5,2.1-2.7,2.1c-0.3,0-0.5-0.2-0.5-0.5
		c0-0.2,0.1-0.3,0.2-0.5c0.4-0.5,1.3-1.7,2.7-3.7c1.2-1.8,2.1-2.6,2.5-2.6c0.3,0,0.8,0.1,1.3,0.4c1.2-0.2,1.9-0.3,2-0.3
		c0.8,0,1.2,0.6,1.2,1.8c0,2-0.6,6-1.8,12s-2.1,9.8-2.9,11.5c2.3-1.9,5.4-5.5,9.1-10.9c3.7-5.3,5.9-9.2,6.8-11.9
		c0-1.6,0.4-2.4,1-2.4c0.5,0,1.4,0.5,2.7,1.5C269.8,36.2,270,37.3,269.7,38.8z"/>
</g>
</svg>
